<svg width="82" height="82" viewBox="0 0 82 82" fill="none" xmlns="http://www.w3.org/2000/svg">
<path d="M10.1544 32.5324C15.7625 32.5324 20.3087 27.9861 20.3087 22.378C20.3087 16.7699 15.7625 12.2236 10.1544 12.2236C4.54626 12.2236 0 16.7699 0 22.378C0 27.9861 4.54626 32.5324 10.1544 32.5324Z" fill="url(#paint0_linear_899_124)"/>
<path d="M81.3677 8.10631C81.3315 7.93727 81.2953 7.78031 81.2591 7.61127C81.2349 7.52675 81.2229 7.44223 81.1987 7.36979C81.1504 7.21282 81.1021 7.05586 81.0538 6.89889C81.0297 6.81438 80.9934 6.74193 80.9693 6.65741C80.9089 6.50045 80.8486 6.34348 80.7882 6.19859C80.752 6.12615 80.7157 6.0537 80.6916 5.96918C80.6191 5.81222 80.5467 5.66733 80.4743 5.52244C80.2931 5.16022 80.0758 4.79799 79.8464 4.47199C79.5325 4.0011 79.1702 3.55435 78.7718 3.14383C78.6631 3.02309 78.5424 2.91442 78.4217 2.79368C78.0111 2.40731 77.5644 2.04508 77.0935 1.71908C76.7554 1.48967 76.4053 1.28441 76.043 1.1033C75.8981 1.03085 75.7533 0.958408 75.5963 0.885964C75.5238 0.849741 75.4393 0.825594 75.3669 0.789372C75.2099 0.729001 75.065 0.66863 74.9081 0.608259C74.8356 0.584111 74.7511 0.547887 74.6666 0.523739C74.5096 0.475442 74.3527 0.427146 74.1957 0.378849C74.1112 0.354701 74.0387 0.330553 73.9542 0.318479C73.7972 0.270182 73.6282 0.23396 73.4592 0.209812C72.6864 0.0528479 71.8895 -0.0195966 71.0685 0.00455169C71.0081 0.00455169 70.9477 0.00455169 70.8874 0.00455169C70.6338 0.0166258 70.3803 0.040773 70.1146 0.0769955C65.1159 0.716926 61.2522 4.9791 61.2522 10.1468V55.8475C61.2522 57.2481 60.6847 58.5159 59.7671 59.4335C58.8494 60.3512 57.5817 60.9187 56.1811 60.9187C53.3799 60.9187 51.0978 58.6487 51.0978 55.8354V40.622C51.0978 40.4288 51.0978 40.2356 51.0858 40.0545C51.0737 39.9459 51.0737 39.8372 51.0616 39.7164C51.0616 39.644 51.0495 39.5716 51.0375 39.5112C51.0375 39.4991 51.0375 39.475 51.0375 39.4629C51.0254 39.3301 51.0133 39.1973 50.9892 39.0765C50.965 38.9075 50.9288 38.7384 50.9046 38.5694C50.8081 38.0985 50.6873 37.6397 50.5183 37.205C50.4821 37.0843 50.4338 36.9635 50.3855 36.8549C50.3492 36.7583 50.313 36.6738 50.2647 36.5772C50.2164 36.4564 50.1681 36.3357 50.1078 36.227C50.0595 36.1304 50.0112 36.0338 49.9629 35.9493C49.9025 35.8286 49.83 35.7078 49.7576 35.5871C49.7576 35.575 49.7455 35.5629 49.7455 35.5509C49.7093 35.4905 49.6731 35.4301 49.6369 35.3698C49.6248 35.3456 49.6127 35.3215 49.5886 35.2852C49.5282 35.1886 49.4678 35.08 49.3954 34.9834C49.0452 34.4521 48.6468 33.9571 48.2 33.5103C48.0672 33.3775 47.9223 33.2447 47.7774 33.1119C47.7774 33.1119 47.7774 33.0998 47.7654 33.0998C47.6929 33.0274 47.6084 32.9549 47.536 32.9066C47.4394 32.81 47.3307 32.7255 47.2341 32.6531C47.1737 32.6048 47.1134 32.5444 47.0409 32.4961C46.9081 32.3995 46.7632 32.2908 46.6183 32.2063C46.5338 32.146 46.4493 32.0856 46.3527 32.0373C46.1957 31.9407 46.0388 31.8441 45.8818 31.7596C45.7852 31.6992 45.6886 31.6509 45.592 31.6026C45.2419 31.4215 44.8917 31.2645 44.5174 31.1196C44.4933 31.1076 44.4571 31.0955 44.4208 31.0834C43.6964 30.8178 42.9357 30.6367 42.1509 30.5401C41.9698 30.5159 41.7887 30.5039 41.6076 30.4918C41.5834 30.4797 41.5593 30.4797 41.5351 30.4797C41.3419 30.4676 41.1367 30.4676 40.9435 30.4676C40.7503 30.4676 40.545 30.4676 40.3518 30.4797C40.3277 30.4797 40.3035 30.4797 40.2794 30.4918C40.0983 30.5039 39.9172 30.5159 39.7361 30.5401C38.9512 30.6367 38.1785 30.8178 37.4661 31.0834C37.442 31.0955 37.4057 31.1076 37.3695 31.1196C37.0073 31.2525 36.6451 31.4094 36.2949 31.6026C36.1983 31.6509 36.1017 31.6992 36.0051 31.7596C35.8482 31.8441 35.6912 31.9407 35.5343 32.0373C35.4377 32.0856 35.3652 32.146 35.2807 32.2063C35.1358 32.3029 34.9909 32.3995 34.8581 32.4961C34.7857 32.5444 34.7253 32.5927 34.6649 32.6531C34.5683 32.7255 34.4597 32.81 34.3631 32.9066C34.2785 32.967 34.2061 33.0274 34.1337 33.0998C34.1337 33.0998 34.1216 33.0998 34.1216 33.1119C33.9767 33.2447 33.8439 33.3775 33.699 33.5103C33.2522 33.9571 32.8538 34.4521 32.5036 34.9834C32.4312 35.08 32.3708 35.1766 32.3105 35.2852C32.2863 35.3094 32.2742 35.3335 32.2622 35.3698C32.2259 35.4301 32.1897 35.4905 32.1535 35.5509C32.1414 35.5629 32.1414 35.575 32.1414 35.5871C32.069 35.7078 31.9965 35.8286 31.9362 35.9493C31.8879 36.0459 31.8396 36.1425 31.7913 36.227C31.7309 36.3357 31.6826 36.4564 31.6343 36.5772C31.586 36.6738 31.5498 36.7583 31.5136 36.8549C31.4653 36.9756 31.417 37.0964 31.3807 37.205C31.2721 37.4948 31.1876 37.7846 31.103 38.0985C31.0668 38.2555 31.0185 38.4124 30.9944 38.5694C30.9581 38.7384 30.9219 38.9075 30.9099 39.0765C30.8857 39.1973 30.8736 39.3301 30.8616 39.4629C30.8616 39.475 30.8616 39.4991 30.8616 39.5112C30.8495 39.5836 30.8374 39.6561 30.8374 39.7164C30.8253 39.8251 30.8253 39.9338 30.8133 40.0545C30.8012 40.2356 30.8012 40.4288 30.8012 40.622V55.8596C30.8012 57.2602 30.2337 58.528 29.3161 59.4456C28.3984 60.3633 27.1306 60.9307 25.73 60.9307C22.9288 60.9307 20.6468 58.6608 20.6468 55.8475V50.7764C20.6468 50.39 20.6227 50.0157 20.5865 49.6535C20.019 44.5703 15.7085 40.622 10.4804 40.622C5.25227 40.622 0.953875 44.5703 0.38639 49.6535C0.350168 50.0278 0.326019 50.4021 0.326019 50.7764V71.0851C0.326019 71.6647 0.374317 72.2321 0.470911 72.7755C1.2678 77.581 5.44546 81.2395 10.4804 81.2395H56.9297C70.5372 81.2395 81.573 70.2037 81.573 56.5961V10.1589C81.573 9.44654 81.5005 8.77039 81.3677 8.10631ZM10.0699 77.6172C5.96465 77.6172 2.64426 74.2848 2.64426 70.1916C2.64426 66.0985 5.96465 62.766 10.0699 62.766C14.1751 62.766 17.4955 66.0985 17.4955 70.1916C17.4955 74.2848 14.1751 77.6172 10.0699 77.6172Z" fill="url(#paint1_linear_899_124)"/>
<defs>
<linearGradient id="paint0_linear_899_124" x1="7.01999e-07" y1="32.5324" x2="20.9579" y2="12.9172" gradientUnits="userSpaceOnUse">
<stop stop-color="#3FA9F5"/>
<stop offset="0.215351" stop-color="#4F7BF8"/>
<stop offset="0.586656" stop-color="#7909FE"/>
<stop offset="0.729747" stop-color="#7C00FF"/>
</linearGradient>
<linearGradient id="paint1_linear_899_124" x1="0.326022" y1="81.2395" x2="84.1628" y2="2.76683" gradientUnits="userSpaceOnUse">
<stop stop-color="#3FA9F5"/>
<stop offset="0.215351" stop-color="#4F7BF8"/>
<stop offset="0.586656" stop-color="#7909FE"/>
<stop offset="0.729747" stop-color="#7C00FF"/>
</linearGradient>
</defs>
</svg>
